<svg id="Layer_1" data-name="Layer 1" xmlns="http://www.w3.org/2000/svg" viewBox="0 0 288 311"><defs><style>.cls-1{fill:none;stroke:#000;stroke-miterlimit:10;stroke-width:4px;}</style></defs><path class="cls-1" d="M240.55,91c0-10.17-43.32-18.41-96.76-18.41S47,80.82,47,91a3.9,3.9,0,0,0,.21,1.21V310.06H240.77V91Z"/><line class="cls-1" x1="143.79" y1="72.58" x2="143.89" y2="310.06"/><line class="cls-1" x1="47.22" y1="116.52" x2="240.78" y2="116.52"/><polyline class="cls-1" points="35.15 310.06 33.79 167.93 26.64 167.93 26.64 70.57 18.13 63.42 18.13 45.38 85.53 45.38 144 25.63"/><polyline class="cls-1" points="252.85 310.2 254.21 168.07 261.36 168.07 261.36 70.71 269.87 63.56 269.87 45.52 202.47 45.52 144 25.77"/><path class="cls-1" d="M94.81,142.55a21.5,21.5,0,0,1,19,8c13.27.51,15.32,5.78,15.32,5.78v8.17H94.55"/><path class="cls-1" d="M94.3,142.55a3.13,3.13,0,0,1,.72,0c0,.06-6.75-.4-12.34,2.1a19.55,19.55,0,0,0-7.36,5.92C62,151.06,60,156.33,60,156.33v8.17H94.55"/><path class="cls-1" d="M94.76,138.48a21.57,21.57,0,0,1-19-8c-13.27-.51-15.32-5.79-15.32-5.79v-8.17H95"/><path class="cls-1" d="M95.27,138.48a4.48,4.48,0,0,1-.72,0c0-.06,6.75.4,12.34-2.11a19.71,19.71,0,0,0,7.36-5.91c13.28-.51,15.32-5.79,15.32-5.79v-8.17H95"/><path class="cls-1" d="M192.15,142.55a21.47,21.47,0,0,1,19,8c13.28.51,15.32,5.78,15.32,5.78v8.17H191.9"/><path class="cls-1" d="M191.64,142.55a3.09,3.09,0,0,1,.72,0c0,.06-6.75-.4-12.33,2.1a19.68,19.68,0,0,0-7.37,5.92c-13.27.51-15.32,5.78-15.32,5.78v8.17H191.9"/><path class="cls-1" d="M192.1,138.48a21.75,21.75,0,0,1-11.61-2.09,21.52,21.52,0,0,1-7.36-5.91c-13.28-.51-15.32-5.79-15.32-5.79v-8.17h34.55"/><path class="cls-1" d="M192.61,138.48a4.32,4.32,0,0,1-.71,0c0-.06,6.74.4,12.33-2.11a19.54,19.54,0,0,0,7.36-5.91c13.28-.51,15.32-5.79,15.32-5.79v-8.17H192.36"/><path class="cls-1" d="M108.08,287.82c3.93-12.26,6.39-29.79,6.39-49.25,0-20.94-2.84-39.64-7.3-51.95,6.68-1,11.13-2.75,11.13-4.76,0-2.47-6.74-4.56-16.11-5.32-2.35-3.29-4.93-5.12-7.64-5.12s-5.28,1.83-7.64,5.12c-9.36.76-16.1,2.85-16.1,5.32,0,2,4.44,3.77,11.13,4.76-4.46,12.31-7.3,31-7.3,51.95,0,19.46,2.46,37,6.38,49.25-6.17,1-10.21,2.71-10.21,4.62,0,2.3,5.86,4.28,14.24,5.15,2.82,5.18,6.06,8.13,9.5,8.13s6.68-3,9.51-8.13c8.38-.87,14.24-2.85,14.24-5.15C118.3,290.53,114.25,288.84,108.08,287.82Z"/><path class="cls-1" d="M205.89,287.82c3.92-12.26,6.38-29.79,6.38-49.25,0-20.94-2.84-39.64-7.29-51.95,6.68-1,11.12-2.75,11.12-4.76,0-2.47-6.74-4.56-16.1-5.32-2.36-3.29-4.93-5.12-7.64-5.12s-5.29,1.83-7.64,5.12c-9.36.76-16.11,2.85-16.11,5.32,0,2,4.45,3.77,11.13,4.76-4.45,12.31-7.3,31-7.3,51.95,0,19.46,2.46,37,6.39,49.25-6.17,1-10.22,2.71-10.22,4.62,0,2.3,5.86,4.28,14.24,5.15,2.83,5.18,6.07,8.13,9.51,8.13s6.68-3,9.5-8.13c8.39-.87,14.24-2.85,14.24-5.15C216.1,290.53,212.06,288.84,205.89,287.82Z"/><polyline class="cls-1" points="18.13 55.25 85.02 55.25 144 35.5 202.47 55.25 269.87 55.25"/><ellipse class="cls-1" cx="135.32" cy="226.69" rx="2.81" ry="11.87"/><ellipse class="cls-1" cx="152.04" cy="226.69" rx="2.81" ry="11.87"/><rect class="cls-1" x="139.6" y="45.37" width="8.81" height="20.6"/></svg>